<svg width="54" height="54" viewBox="0 0 54 54" fill="none" xmlns="http://www.w3.org/2000/svg">
<path fill-rule="evenodd" clip-rule="evenodd" d="M48.6 26.9999C48.6 32.7286 46.3243 38.2226 42.2735 42.2734C38.2227 46.3242 32.7287 48.5999 27 48.5999C21.2713 48.5999 15.7773 46.3242 11.7265 42.2734C7.6757 38.2226 5.39999 32.7286 5.39999 26.9999C5.39999 21.2712 7.6757 15.7772 11.7265 11.7264C15.7773 7.67561 21.2713 5.3999 27 5.3999C32.7287 5.3999 38.2227 7.67561 42.2735 11.7264C46.3243 15.7772 48.6 21.2712 48.6 26.9999ZM32.4 18.8999C32.4 20.3321 31.8311 21.7056 30.8184 22.7183C29.8057 23.731 28.4322 24.2999 27 24.2999C25.5678 24.2999 24.1943 23.731 23.1816 22.7183C22.1689 21.7056 21.6 20.3321 21.6 18.8999C21.6 17.4677 22.1689 16.0942 23.1816 15.0815C24.1943 14.0688 25.5678 13.4999 27 13.4999C28.4322 13.4999 29.8057 14.0688 30.8184 15.0815C31.8311 16.0942 32.4 17.4677 32.4 18.8999ZM27 29.6999C24.415 29.6994 21.8842 30.441 19.7084 31.8367C17.5326 33.2324 15.8032 35.2234 14.7258 37.5731C16.245 39.3405 18.1285 40.7585 20.2471 41.7297C22.3658 42.7009 24.6694 43.2025 27 43.1999C29.3306 43.2025 31.6342 42.7009 33.7528 41.7297C35.8715 40.7585 37.755 39.3405 39.2742 37.5731C38.1968 35.2234 36.4674 33.2324 34.2916 31.8367C32.1157 30.441 29.585 29.6994 27 29.6999Z" fill="#FFA3B1"/>
</svg>
