<svg width="24" height="24" viewBox="0 0 24 24" fill="none" xmlns="http://www.w3.org/2000/svg">
<path d="M12 12C13.0609 12 14.0783 11.5786 14.8284 10.8284C15.5786 10.0783 16 9.06087 16 8C16 6.93913 15.5786 5.92172 14.8284 5.17157C14.0783 4.42143 13.0609 4 12 4C10.9391 4 9.92172 4.42143 9.17157 5.17157C8.42143 5.92172 8 6.93913 8 8C8 9.06087 8.42143 10.0783 9.17157 10.8284C9.92172 11.5786 10.9391 12 12 12Z" stroke="#E4141D" stroke-width="1.5" stroke-linecap="round" stroke-linejoin="round"/>
<path d="M22 17.2799C21.9999 17.8816 21.7619 18.4589 21.338 18.8859C20.362 19.8699 19.415 20.8959 18.402 21.8439C18.2888 21.9472 18.1403 22.0031 17.9871 21.9999C17.8339 21.9968 17.6878 21.9348 17.579 21.8269L14.661 18.8869C14.2368 18.4596 13.9988 17.882 13.9988 17.2799C13.9988 16.6778 14.2368 16.1002 14.661 15.6729C14.8727 15.4595 15.1245 15.2902 15.4019 15.1746C15.6794 15.059 15.9769 14.9995 16.2775 14.9995C16.578 14.9995 16.8756 15.059 17.1531 15.1746C17.4305 15.2902 17.6823 15.4595 17.894 15.6729L18 15.7799L18.106 15.6729C18.4239 15.3523 18.8299 15.1334 19.2725 15.044C19.7151 14.9547 20.1742 14.999 20.5916 15.1712C21.009 15.3435 21.3657 15.6359 21.6165 16.0114C21.8673 16.3868 22.0007 16.8284 22 17.2799Z" stroke="#E4141D" stroke-width="1.5" stroke-linejoin="round"/>
<path d="M5 20V19C4.99976 17.819 5.29833 16.6571 5.86794 15.6225C6.43754 14.5879 7.25965 13.7142 8.25773 13.0828C9.25582 12.4515 10.3974 12.0829 11.5763 12.0114C12.7551 11.9399 13.9329 12.1678 15 12.674" stroke="#E4141D" stroke-width="1.5" stroke-linecap="round" stroke-linejoin="round"/>
</svg>
